<svg width="54" height="118" viewBox="0 0 54 118" fill="none" xmlns="http://www.w3.org/2000/svg">
<path d="M29.17 89.9036C30.71 94.9036 27.22 99.5436 27.36 104.904C28.4021 104.172 29.4036 103.384 30.36 102.544C41.79 91.2336 47.14 77.3636 47.51 61.4336C47.707 57.5632 46.8973 53.7078 45.16 50.2436C43.16 46.5536 40.49 43.7736 35.91 42.7036C35.47 44.1436 35.05 45.4836 34.64 46.8236C33.1828 51.5442 30.108 55.5999 25.9561 58.2775C21.8043 60.9552 16.8414 62.0833 11.94 61.4636C4.69 60.4636 1.94 54.2836 6.47 48.4636C11.19 42.3436 17.91 39.3336 25.21 37.4636C26.73 37.0736 28.27 36.7736 29.78 36.4636C27.98 23.6336 13.18 6.38358 0 2.20358C0.82 1.33358 1.40001 0.203586 2.07001 0.103586C3.64527 -0.142267 5.25784 0.0515148 6.73001 0.663584C10.34 2.66358 14.14 4.66359 17.15 7.37359C25.2031 14.6004 31.182 23.845 34.47 34.1536C35.01 35.8536 35.64 36.8936 37.47 37.4036C47.96 40.4036 52.3 48.2336 52.92 58.2736C53.92 73.9236 49.18 88.0236 39.85 100.594C38.9 101.884 37.85 103.094 36.62 104.594C39 104.894 40.4 103.444 42.01 102.654C44.45 101.444 46.78 100.014 49.26 98.9136C49.6853 98.8467 50.1203 98.8767 50.5323 99.0014C50.9444 99.1261 51.3231 99.3422 51.64 99.6336C51.95 99.9236 51.64 101.204 51.3 101.774C50.6544 102.692 49.8561 103.494 48.94 104.144C46.7969 105.831 44.5231 107.346 42.14 108.674C36.41 111.544 30.55 114.144 24.74 116.864C23.17 117.594 21.41 117.864 20.38 116.374C19.6559 115.192 19.4193 113.776 19.72 112.424C21.6 105.794 23.72 99.2136 25.82 92.6636C26.3125 91.5892 26.9229 90.573 27.64 89.6336L29.17 89.9036ZM8.79001 54.9036C14.91 58.0436 19.64 56.5736 24.1 53.9036C26.1337 52.7707 27.7765 51.0483 28.8118 48.9633C29.8472 46.8783 30.2266 44.5285 29.9 42.2236C21.64 43.8536 14.06 46.4136 8.79001 54.8836V54.9036Z" fill="#C4B2B7"/>
</svg>
